# xmcd CD database file
#
# Track frame offsets:
#	150
#	13332
#	26898
#	45395
#	65168
#	76816
#	89765
#	100065
#	110839
#	126774
#	136758
#	148510
#	167569
#	179046
#	192379
#	206521
#	219824
#	230151
#	241644
#	256062
#	282163
#	293082
#	311706
#	330803
#
# Disc length: 4586 seconds
#
# Revision: 6
# Processed by: cddbd v1.5.2PL0 Copyright (c) Steve Scherf et al.
# Submitted via: CDex 1.51
#
DISCID=5c11e818
DTITLE=Sammy Davis Jr. - Yes I Can! The Sammy Davis Jr. Story (Vol  3)
DYEAR=1999
DGENRE=Jazz
TTITLE0=I've Gotta Be Me
TTITLE1=Who Can I Turn To (When Nobody Needs Me)
TTITLE2=Every Time We Say Goodbye
TTITLE3=This Was My Love
TTITLE4=If I Ruled The World
TTITLE5=The Shelter Of Your Arms
TTITLE6=Yes I Can
TTITLE7=Gonna Build A Mountain
TTITLE8=Sit Down, You're Rockin' The Boat
TTITLE9='Deed I Do
TTITLE10=Walkin' My Baby Back Home
TTITLE11=The Party's Over
TTITLE12=Unforgettable
TTITLE13=People
TTITLE14=Here I'll Stay
TTITLE15=I Think I Like You
TTITLE16=At The Crossroads
TTITLE17=I'll Begin Again
TTITLE18=The Candy Man
TTITLE19=Mr. Bojangles
TTITLE20=Keep Your Eye On The Sparrow (Baretta's Theme)
TTITLE21=I'm Not Anyone
TTITLE22=Life Is A Woman
TTITLE23=Lover, Come Back To Me
EXTD=YEAR: 1999
EXTT0=
EXTT1=
EXTT2=
EXTT3=
EXTT4=
EXTT5=
EXTT6=
EXTT7=
EXTT8=
EXTT9=
EXTT10=
EXTT11=
EXTT12=
EXTT13=
EXTT14=
EXTT15=
EXTT16=
EXTT17=
EXTT18=
EXTT19=
EXTT20=
EXTT21=
EXTT22=
EXTT23=
PLAYORDER=
